erDiagram
    USER ||--o{ CHAMPIONSHIP : creates
    USER ||--o{ TEAM : manages
    USER ||--o{ PARTICIPANT : creates
    TEAM ||--o{ PARTICIPANT : has
    CHAMPIONSHIP ||--o{ MATCH : has
    CHAMPIONSHIP ||--o{ SUBSCRIPTION : receives
    TEAM ||--o{ SUBSCRIPTION : makes
    MATCH ||--o{ PARTICIPANT_STATISTICS : generates
    PARTICIPANT ||--o{ PARTICIPANT_STATISTICS : participates_in
    AGENT ||--o{ PARTICIPANT_STATISTICS : used_in
    CHAMPIONSHIP ||--o{ CHAMPIONSHIP_STATISTICS : generates

    USER {
        int user_id
        string name
        string email
        string password
    }

    TEAM {
        int team_id
        string name
        int user_id
    }

    PARTICIPANT {
        int participant_id
        string name
        string nickname
        datetime birth_date
        int phone
        int team_id
        boolean is_COACH
        int user_id
    }

    CHAMPIONSHIP {
        int championship_id
        string name
        string description
        enum format
        date start_date
        date end_date
        string location
        float prize 
        string status
        int user_id
    }

// [MermaidChart: 2b332252-98ac-48ac-ac1b-3ace4474f9be]
    MATCH {
        int match_id
        int championship_id
        int teamA_id
        int teamB_id
        datetime date
        string stage
        enum bracket
        int winner_team_id
        dict score
        string map
    }

    SUBSCRIPTION {
        int subscription_id
        int championship_id
        int team_id
        date subscription_date
    }

    PARTICIPANT_STATISTICS {
        int statistic_id
        int match_id
        int participant_id
        int agent_id
        int kills
        int assists
        int deaths
        int spike_plants
        int spike_defuses
        boolean MVP
        int first_kill
        float kda 
        int average_combat_score
        int total_score
        %%kda, average_combat_score e total_score calculados pelo controller%%
    }

    AGENT {
        int agent_id
        string name
    }

    CHAMPIONSHIP_STATISTICS {
        int statistic_id
        int championship_id
        int participant_id
        int team_id
        int kills
        int assists
        int deaths
        int spike_plants
        int spike_defuses
        int MVPs
        int first_kills
    }